<svg width="394" height="131" viewBox="0 0 394 131" fill="none" xmlns="http://www.w3.org/2000/svg">
<path d="M383.005 0V0.5H384C384.314 0.5 384.625 0.515121 384.932 0.544922L384.979 0.0478516C385.642 0.112248 386.285 0.241452 386.903 0.428711L386.759 0.90625C387.359 1.08819 387.935 1.3288 388.479 1.62012L388.714 1.17969C389.293 1.49004 389.84 1.85442 390.344 2.26855V2.26953L390.026 2.65625C390.507 3.05136 390.949 3.49274 391.344 3.97363L391.73 3.65625V3.65527C392.145 4.15937 392.509 4.70569 392.819 5.28516L392.38 5.52148C392.671 6.06537 392.912 6.64068 393.094 7.24121L393.57 7.0957C393.758 7.71388 393.887 8.35711 393.951 9.01953L393.455 9.06836C393.485 9.37473 393.5 9.68552 393.5 10V10.9912H394V12.9736H393.5V14.9551H394V16.9375H393.5V18.9199H394V20.9014H393.5V22.8838H394V24.8662H393.5V26.8486H394V28.8301H393.5V30.8125H394V32.7949H393.5V34.7764H394V36.7588H393.5V38.7412H394V40.7236H393.5V42.7051H394V44.6875H393.5V46.6699H394V48.6514H393.5V50.6338H394V52.6162H393.5V54.5986H394V56.5801H393.5V58.5625H394V60.5449H393.5V62.5264H394V64.5088H393.5V66.4912H394V68.4736H393.5V70.4551H394V72.4375H393.5V74.4199H394V76.4014H393.5V78.3838H394V80.3662H393.5V82.3486H394V84.3301H393.5V86.3125H394V88.2949H393.5V90.2764H394V92.2588H393.5V94.2412H394V96.2236H393.5V98.2051H394V100.188H393.5V102.17H394V104.151H393.5V106.134H394V108.116H393.5V110.099H394V112.08H393.5V114.062H394V116.045H393.5V118.026H394V120.009H393.5V121C393.5 121.314 393.485 121.625 393.455 121.932L393.951 121.979C393.887 122.642 393.758 123.285 393.57 123.903L393.094 123.759C392.912 124.359 392.671 124.935 392.38 125.479L392.819 125.714C392.509 126.293 392.145 126.84 391.73 127.344L391.344 127.026C390.949 127.507 390.507 127.949 390.026 128.344L390.344 128.73C389.84 129.145 389.293 129.509 388.714 129.819L388.479 129.38C387.935 129.671 387.359 129.912 386.759 130.094L386.903 130.57C386.285 130.758 385.642 130.887 384.979 130.951L384.932 130.455C384.625 130.485 384.314 130.5 384 130.5H383.005V131H381.016V130.5H379.026V131H377.037V130.5H375.048V131H373.059V130.5H371.069V131H369.08V130.5H367.091V131H365.101V130.5H363.111V131H361.122V130.5H359.133V131H357.144V130.5H355.154V131H353.165V130.5H351.176V131H349.187V130.5H347.197V131H345.207V130.5H343.218V131H341.229V130.5H339.239V131H337.25V130.5H335.261V131H333.271V130.5H331.282V131H329.293V130.5H327.303V131H325.313V130.5H323.324V131H321.335V130.5H319.346V131H317.356V130.5H315.367V131H313.378V130.5H311.389V131H309.399V130.5H307.409V131H305.42V130.5H303.431V131H301.441V130.5H299.452V131H297.463V130.5H295.474V131H293.484V130.5H291.495V131H289.505V130.5H287.516V131H285.526V130.5H283.537V131H281.548V130.5H279.559V131H277.569V130.5H275.58V131H273.591V130.5H271.601V131H269.611V130.5H267.622V131H265.633V130.5H263.644V131H261.654V130.5H259.665V131H257.676V130.5H255.687V131H253.696V130.5H251.707V131H249.718V130.5H247.729V131H245.739V130.5H243.75V131H241.761V130.5H239.771V131H237.782V130.5H235.792V131H233.803V130.5H231.813V131H229.824V130.5H227.835V131H225.846V130.5H223.856V131H221.867V130.5H219.878V131H217.888V130.5H215.898V131H213.909V130.5H211.92V131H209.931V130.5H207.941V131H205.952V130.5H203.963V131H201.974V130.5H199.984V131H197.994V130.5H196.005V131H194.016V130.5H192.026V131H190.037V130.5H188.048V131H186.059V130.5H184.069V131H182.08V130.5H180.09V131H178.101V130.5H176.111V131H174.122V130.5H172.133V131H170.144V130.5H168.154V131H166.165V130.5H164.176V131H162.186V130.5H160.196V131H158.207V130.5H156.218V131H154.229V130.5H152.239V131H150.25V130.5H148.261V131H146.271V130.5H144.281V131H142.292V130.5H140.303V131H138.313V130.5H136.324V131H134.335V130.5H132.346V131H130.356V130.5H128.367V131H126.377V130.5H124.388V131H122.398V130.5H120.409V131H118.42V130.5H116.431V131H114.441V130.5H112.452V131H110.463V130.5H108.474V131H106.484V130.5H104.494V131H102.505V130.5H100.516V131H98.5264V130.5H96.5371V131H94.5479V130.5H92.5586V131H90.5693V130.5H88.5801V131H86.5908V130.5H84.6016V131H82.6113V130.5H80.6221V131H78.6328V130.5H76.6436V131H74.6543V130.5H72.665V131H70.6758V130.5H68.6865V131H66.6973V130.5H64.708V131H62.7178V130.5H60.7285V131H58.7393V130.5H56.75V131H54.7607V130.5H52.7715V131H50.7822V130.5H48.793V131H46.8037V130.5H44.8145V131H42.8252V130.5H40.835V131H38.8457V130.5H36.8564V131H34.8672V130.5H32.8779V131H30.8887V130.5H28.8994V131H26.9102V130.5H24.9209V131H22.9316V130.5H20.9424V131H18.9521V130.5H16.9629V131H14.9736V130.5H12.9844V131H10.9951V130.5H10C9.68552 130.5 9.37473 130.485 9.06836 130.455L9.01953 130.951C8.35711 130.887 7.71388 130.758 7.0957 130.57L7.24121 130.094C6.64068 129.912 6.06537 129.671 5.52148 129.38L5.28516 129.819C4.70569 129.509 4.15937 129.145 3.65527 128.73L3.97363 128.344C3.49274 127.949 3.05137 127.507 2.65625 127.026L2.26855 127.344C1.85442 126.84 1.49004 126.293 1.17969 125.714L1.62012 125.479C1.3288 124.935 1.08819 124.359 0.90625 123.759L0.428711 123.903C0.241452 123.285 0.112248 122.642 0.0478516 121.979L0.544922 121.932C0.515121 121.625 0.5 121.314 0.5 121V120.009H0V118.026H0.5V116.045H0V114.062H0.5V112.08H0V110.099H0.5V108.116H0V106.134H0.5V104.151H0V102.17H0.5V100.188H0V98.2051H0.5V96.2236H0V94.2412H0.5V92.2588H0V90.2764H0.5V88.2949H0V86.3125H0.5V84.3301H0V82.3486H0.5V80.3662H0V78.3838H0.5V76.4014H0V74.4199H0.5V72.4375H0V70.4551H0.5V68.4736H0V66.4912H0.5V64.5088H0V62.5264H0.5V60.5449H0V58.5625H0.5V56.5801H0V54.5986H0.5V52.6162H0V50.6338H0.5V48.6514H0V46.6699H0.5V44.6875H0V42.7051H0.5V40.7236H0V38.7412H0.5V36.7588H0V34.7764H0.5V32.7949H0V30.8125H0.5V28.8301H0V26.8486H0.5V24.8662H0V22.8838H0.5V20.9014H0V18.9199H0.5V16.9375H0V14.9551H0.5V12.9736H0V10.9912H0.5V10C0.5 9.68552 0.515121 9.37473 0.544922 9.06836L0.0478516 9.01953C0.11231 8.35717 0.241397 7.71382 0.428711 7.0957L0.90625 7.24121C1.08819 6.64068 1.3288 6.06537 1.62012 5.52148L1.17969 5.28516C1.49007 4.70572 1.85441 4.15935 2.26855 3.65527L2.26953 3.65625L2.65625 3.97363C3.05137 3.49274 3.49274 3.05137 3.97363 2.65625L3.65625 2.26953L3.65527 2.26855C4.15935 1.85441 4.70572 1.49007 5.28516 1.17969L5.52148 1.62012C6.06537 1.3288 6.64068 1.08819 7.24121 0.90625L7.0957 0.428711C7.71382 0.241397 8.35717 0.11231 9.01953 0.0478516L9.06836 0.544922C9.22158 0.530019 9.37592 0.51926 9.53125 0.511719L10 0.5H10.9951V0H12.9844V0.5H14.9736V0H16.9629V0.5H18.9521V0H20.9414V0.5H22.9307V0H24.9199V0.5H26.9092V0H28.8994V0.5H30.8887V0H32.8779V0.5H34.8672V0H36.8564V0.5H38.8457V0H40.835V0.5H42.8242V0H44.8135V0.5H46.8027V0H48.793V0.5H50.7822V0H52.7715V0.5H54.7607V0H56.75V0.5H58.7393V0H60.7285V0.5H62.7178V0H64.707V0.5H66.6973V0H68.6865V0.5H70.6758V0H72.665V0.5H74.6543V0H76.6436V0.5H78.6328V0H80.6221V0.5H82.6113V0H84.6006V0.5H86.5908V0H88.5801V0.5H90.5693V0H92.5586V0.5H94.5479V0H96.5371V0.5H98.5264V0H100.516V0.5H102.505V0H104.495V0.5H106.484V0H108.474V0.5H110.463V0H112.452V0.5H114.441V0H116.431V0.5H118.42V0H120.409V0.5H122.399V0H124.389V0.5H126.378V0H128.367V0.5H130.356V0H132.346V0.5H134.335V0H136.324V0.5H138.313V0H140.304V0.5H142.293V0H144.282V0.5H146.271V0H148.261V0.5H150.25V0H152.239V0.5H154.229V0H156.218V0.5H158.208V0H160.197V0.5H162.187V0H164.176V0.5H166.165V0H168.154V0.5H170.144V0H172.133V0.5H174.122V0H176.112V0.5H178.102V0H180.091V0.5H182.08V0H184.069V0.5H186.059V0H188.048V0.5H190.037V0H192.026V0.5H194.016V0H196.006V0.5H197.995V0H199.984V0.5H201.974V0H203.963V0.5H205.952V0H207.941V0.5H209.931V0H211.92V0.5H213.91V0H215.899V0.5H217.889V0H219.878V0.5H221.867V0H223.856V0.5H225.846V0H227.835V0.5H229.824V0H231.814V0.5H233.804V0H235.793V0.5H237.782V0H239.771V0.5H241.761V0H243.75V0.5H245.739V0H247.729V0.5H249.719V0H251.708V0.5H253.697V0H255.687V0.5H257.676V0H259.665V0.5H261.654V0H263.644V0.5H265.633V0H267.623V0.5H269.612V0H271.602V0.5H273.591V0H275.58V0.5H277.569V0H279.559V0.5H281.548V0H283.537V0.5H285.526V0H287.516V0.5H289.506V0H291.495V0.5H293.484V0H295.474V0.5H297.463V0H299.452V0.5H301.441V0H303.431V0.5H305.42V0H307.409V0.5H309.398V0H311.389V0.5H313.378V0H315.367V0.5H317.356V0H319.346V0.5H321.335V0H323.324V0.5H325.313V0H327.303V0.5H329.292V0H331.282V0.5H333.271V0H335.261V0.5H337.25V0H339.239V0.5H341.229V0H343.218V0.5H345.207V0H347.196V0.5H349.186V0H351.175V0.5H353.165V0H355.154V0.5H357.144V0H359.133V0.5H361.122V0H363.111V0.5H365.101V0H367.09V0.5H369.079V0H371.068V0.5H373.058V0H375.048V0.5H377.037V0H379.026V0.5H381.016V0H383.005Z" fill="#0779B8" fill-opacity="0.05" stroke="#0779B8" stroke-dasharray="2 2"/>
</svg>
